<svg xmlns="http://www.w3.org/2000/svg" xmlns:xlink="http://www.w3.org/1999/xlink" width="387.382" height="461.226" viewBox="0 0 387.382 461.226">
  <defs>
    <linearGradient id="linear-gradient" x1="0.357" y1="0.383" x2="0.951" y2="0.781" gradientUnits="objectBoundingBox">
      <stop offset="0" stop-color="#9b62cd"/>
      <stop offset="0.3" stop-color="#985dcb"/>
      <stop offset="0.672" stop-color="#8f4ec7"/>
      <stop offset="1" stop-color="#833ac1"/>
    </linearGradient>
    <linearGradient id="linear-gradient-2" x1="0.438" y1="0.161" x2="0.546" y2="0.822" gradientUnits="objectBoundingBox">
      <stop offset="0" stop-color="#833ac1" stop-opacity="0"/>
      <stop offset="1" stop-color="#6e566e"/>
    </linearGradient>
    <linearGradient id="linear-gradient-3" x1="0.436" y1="0.454" x2="1.62" y2="1.051" xlink:href="#linear-gradient-2"/>
    <linearGradient id="linear-gradient-4" x1="0.445" y1="0.445" x2="0.059" y2="0.059" gradientUnits="objectBoundingBox">
      <stop offset="0" stop-color="#9b62cd" stop-opacity="0"/>
      <stop offset="1" stop-color="#ff75c8"/>
    </linearGradient>
  </defs>
  <g id="Group_211" data-name="Group 211" transform="translate(-122.618 -44.941)">
    <path id="Path_161" data-name="Path 161" d="M495.856,44.941H484.1A131.089,131.089,0,0,0,391.41,83.335c-33.21,32.448-77.708,51.851-123.9,54.97a14.133,14.133,0,0,0-13.183,14.1V326.675c-28.11-2.62-63.16,11.608-91.477,39.915-41.378,41.378-52.68,97.163-25.252,124.6s83.221,16.126,124.6-25.252c25.45-25.45,39.52-56.348,40.192-82.757h.03V199.038a10.416,10.416,0,0,1,8.089-10.122,134.828,134.828,0,0,0,63.484-34.839,194.544,194.544,0,0,1,74.318-45.367,10.369,10.369,0,0,1,13.6,9.875V232.866c-28.11-2.62-63.16,11.608-91.477,39.915-41.378,41.378-52.68,97.163-25.252,124.6s83.221,16.126,124.6-25.252c25.45-25.45,39.52-56.348,40.192-82.757H510V59.084a14.143,14.143,0,0,0-14.144-14.143Z" fill="url(#linear-gradient)"/>
    <path id="Path_162" data-name="Path 162" d="M374.807,153.558A136.372,136.372,0,0,1,310.6,188.8a10.54,10.54,0,0,0-8.18,10.24v-21.58a10.529,10.529,0,0,1,8.18-10.23,136.372,136.372,0,0,0,64.21-35.24,196.622,196.622,0,0,1,75.17-45.89,10.487,10.487,0,0,1,13.75,9.99v21.58a10.487,10.487,0,0,0-13.75-9.99,196.762,196.762,0,0,0-75.17,45.88Z" fill="url(#linear-gradient-2)"/>
    <g id="Group_210" data-name="Group 210">
      <path id="Path_163" data-name="Path 163" d="M495.856,44.941h-2.693c.008.19.029.377.029.569V275.8h-.03c-.672,26.409-14.742,57.307-40.192,82.757-35.634,35.634-81.949,48.959-111.646,34.456a47.551,47.551,0,0,0,3.854,4.371c27.437,27.427,83.221,16.126,124.6-25.252,25.45-25.45,39.52-56.348,40.192-82.757H510V59.084a14.143,14.143,0,0,0-14.144-14.143Z" fill="url(#linear-gradient-3)"/>
    </g>
    <path id="Path_164" data-name="Path 164" d="M483.708,258.852C507,282.143,497.4,329.5,462.274,364.629S379.787,409.354,356.5,386.063,342.8,315.414,377.931,280.286,460.418,235.561,483.708,258.852Z" fill="url(#linear-gradient-4)"/>
    <path id="Path_165" data-name="Path 165" d="M276.126,352.661c23.291,23.291,13.694,70.649-21.434,105.777s-82.487,44.725-105.777,21.434S135.221,409.223,170.349,374.1,252.835,329.37,276.126,352.661Z" fill="url(#linear-gradient-4)"/>
  </g>
</svg>
