<svg xmlns="http://www.w3.org/2000/svg" xmlns:xlink="http://www.w3.org/1999/xlink" width="348.032" height="371.378" viewBox="0 0 348.032 371.378">
  <defs>
    <linearGradient id="linear-gradient" x1="0.321" y1="0.315" x2="0.851" y2="1.017" gradientUnits="objectBoundingBox">
      <stop offset="0" stop-color="#92f37f"/>
      <stop offset="1" stop-color="#4ab272"/>
    </linearGradient>
    <linearGradient id="linear-gradient-2" x1="0.312" y1="0.33" x2="0.842" y2="1.031" xlink:href="#linear-gradient"/>
    <linearGradient id="linear-gradient-3" x1="0.31" y1="0.327" x2="0.841" y2="1.028" xlink:href="#linear-gradient"/>
  </defs>
  <g id="Group_215" data-name="Group 215" transform="translate(-14638 -4594)">
    <path id="Path_158" data-name="Path 158" d="M342.936,80.392a113.343,113.343,0,0,1-80.146-33.2A148.045,148.045,0,0,0,158.108,3.834h-15.1A11.309,11.309,0,0,0,131.7,15.143v180.58c-28.1-2.626-63.162,11.6-91.476,39.915C-1.149,277.015-12.453,332.8,14.981,360.231s83.216,16.13,124.593-25.247c25.452-25.453,39.519-56.354,40.2-82.756h.032V93.188c0-15.424,18.619-23.18,29.569-12.319l8.538,8.468a91.137,91.137,0,0,0,128.623-.263,5.086,5.086,0,0,0-3.6-8.682Z" transform="translate(14638 4590.166)" fill="#995fcc"/>
    <g id="Group_208" data-name="Group 208" transform="translate(14638 4590.166)">
      <path id="Path_159" data-name="Path 159" d="M342.936,80.392a113.362,113.362,0,0,1-14.712-.965A91.171,91.171,0,0,1,217.909,65.518l-8.538-8.468C198.42,46.188,179.8,53.945,179.8,69.369V93.188c0-15.424,18.619-23.18,29.569-12.319l8.538,8.468a91.137,91.137,0,0,0,128.623-.263,5.086,5.086,0,0,0-3.6-8.682Z" fill="#b161c9"/>
    </g>
    <path id="Path_160" data-name="Path 160" d="M153.507,221.706C176.8,245,167.2,292.355,132.073,327.483S49.586,372.208,26.3,348.917,12.6,278.268,47.729,243.14s82.487-44.725,105.778-21.434Z" transform="translate(14638 4590.166)" fill="#b161c9"/>
    <path id="Path_166" data-name="Path 166" d="M134.441,121.428l45.361,45.61v-55.55L139.7,71.46l-.111-.147a3.294,3.294,0,0,0-5.613-.158q-1.091,1.695-2.27,3.324V114.8a9.409,9.409,0,0,0,2.738,6.632Z" transform="translate(14638 4590.166)" fill="#82539f"/>
    <g id="Group_213" data-name="Group 213" transform="translate(14638 4590.166)">
      <path id="Path_167" data-name="Path 167" d="M179.378,258.3l-42.229-42.165a54.642,54.642,0,0,0-8.526-6.95c-6.9-4.553-19.123-12.324-21.432-11.843-15.133,3.157-31.028,10.175-46.079,20.73A4.544,4.544,0,0,0,62.89,219.9l.211.159,93.885,94.271C169.926,295.948,177.585,276.3,179.378,258.3Z" fill="#82539f"/>
      <path id="Path_168" data-name="Path 168" d="M132.785,219.872a105.965,105.965,0,0,0-31.227,31.412,4.659,4.659,0,0,1-7.81-.014,105.976,105.976,0,0,0-31.112-31.526,4.659,4.659,0,0,1,.014-7.757,105.965,105.965,0,0,0,31.227-31.412,4.658,4.658,0,0,1,7.81.014A105.979,105.979,0,0,0,132.8,212.115,4.66,4.66,0,0,1,132.785,219.872Z" fill="url(#linear-gradient)"/>
      <path id="Path_169" data-name="Path 169" d="M67.91,142.344a74.946,74.946,0,0,0-22.083,22.214,3.294,3.294,0,0,1-5.523-.01,74.93,74.93,0,0,0-22-22.294,3.3,3.3,0,0,1,.01-5.485A74.931,74.931,0,0,0,40.4,114.555a3.294,3.294,0,0,1,5.523.01,74.945,74.945,0,0,0,22,22.294A3.294,3.294,0,0,1,67.91,142.344Z" fill="url(#linear-gradient-2)"/>
      <path id="Path_170" data-name="Path 170" d="M161.489,98.944a74.946,74.946,0,0,0-22.083,22.214,3.294,3.294,0,0,1-5.523-.01,74.93,74.93,0,0,0-22-22.294,3.3,3.3,0,0,1,.01-5.485,74.931,74.931,0,0,0,22.082-22.214,3.294,3.294,0,0,1,5.523.01,74.945,74.945,0,0,0,22,22.294,3.3,3.3,0,0,1-.01,5.485Z" fill="url(#linear-gradient-3)"/>
    </g>
  </g>
</svg>
