<svg xmlns="http://www.w3.org/2000/svg" width="32.515" height="32.514" viewBox="0 0 32.515 32.514">
  <g id="book_1_" data-name="book (1)" transform="translate(0 -0.004)">
    <path id="Path_114" data-name="Path 114" d="M8.67,66.714V64.546A.542.542,0,0,0,8.128,64H.542A.542.542,0,0,0,0,64.546v2.168Zm0,0" transform="translate(0 -59.665)" fill="#7a90a6"/>
    <path id="Path_115" data-name="Path 115" d="M0,120v17.883H8.67V120Zm6.5,7.045H2.168a.542.542,0,0,1-.542-.542v-4.335a.542.542,0,0,1,.542-.542H6.5a.542.542,0,0,1,.542.542v4.335A.542.542,0,0,1,6.5,127.049Zm0,0" transform="translate(0 -111.872)" fill="#7a90a6"/>
    <path id="Path_116" data-name="Path 116" d="M0,432v2.71a.542.542,0,0,0,.542.542H8.128a.542.542,0,0,0,.542-.542V432Zm0,0" transform="translate(0 -402.738)" fill="#7a90a6"/>
    <path id="Path_117" data-name="Path 117" d="M0,400H8.67v1.084H0Zm0,0" transform="translate(0 -372.905)" fill="#7a90a6"/>
    <path id="Path_118" data-name="Path 118" d="M144,400h7.045v1.084H144Zm0,0" transform="translate(-134.246 -372.905)" fill="#7a90a6"/>
    <path id="Path_119" data-name="Path 119" d="M151.045,2.171V.546A.542.542,0,0,0,150.5,0h-5.961A.542.542,0,0,0,144,.546V2.171Zm0,0" transform="translate(-134.246)" fill="#7a90a6"/>
    <path id="Path_120" data-name="Path 120" d="M144,88h7.045v20.05H144Zm0,0" transform="translate(-134.246 -82.039)" fill="#7a90a6"/>
    <path id="Path_121" data-name="Path 121" d="M144,432v2.71a.542.542,0,0,0,.542.542H150.5a.542.542,0,0,0,.542-.542V432Zm0,0" transform="translate(-134.246 -402.738)" fill="#7a90a6"/>
    <path id="Path_122" data-name="Path 122" d="M144,48h7.045V49.63H144Zm0,0" transform="translate(-134.246 -44.749)" fill="#7a90a6"/>
    <path id="Path_123" data-name="Path 123" d="M263.809,131.986l.29,1.113,9.177-2.447-.29-1.113Zm0,0" transform="translate(-245.939 -120.761)" fill="#7a90a6"/>
    <path id="Path_124" data-name="Path 124" d="M322.659,357.608l9.177-2.447-.581-2.228-9.178,2.447Zm0,0" transform="translate(-300.261 -329.023)" fill="#7a90a6"/>
    <path id="Path_125" data-name="Path 125" d="M284.416,173.375l-3.11-11.922-9.178,2.447,3.11,11.922Zm0,0" transform="translate(-253.696 -150.513)" fill="#7a90a6"/>
    <path id="Path_126" data-name="Path 126" d="M248.787,69.845l9.177-2.447-.778-2.984a.554.554,0,0,0-.667-.39l-8.128,2.168a.546.546,0,0,0-.385.661Zm0,0" transform="translate(-231.191 -59.668)" fill="#7a90a6"/>
    <path id="Path_127" data-name="Path 127" d="M343.874,401.3l-9.178,2.447.646,2.477a.544.544,0,0,0,.255.331.524.524,0,0,0,.271.076.629.629,0,0,0,.141-.016l8.128-2.168a.546.546,0,0,0,.385-.661Zm0,0" transform="translate(-312.025 -374.114)" fill="#7a90a6"/>
  </g>
</svg>
